# xmcd
#
# Track frame offsets:
#        150
#        18285
#        39425
#        61045
#        92758
#        115050
#        140640
#
# Disc length: 2380 seconds
#
# Revision: 3
# Processed by: cddbd v1.5.1PL0 Copyright (c) Steve Scherf et al.
# Submitted via: ExactAudioCopy v0.95a5
#
DISCID=51094a07
DTITLE=Gigi Gryce&Donald Byrd - Jazz Lab
DYEAR=1957
DGENRE=Jazz
TTITLE0=Blue Lights
TTITLE1=Onion Head
TTITLE2=Isn't It Romantic
TTITLE3=Bat Land
TTITLE4=Bangoon
TTITLE5=Imagination
TTITLE6=Xtacy
EXTD=
EXTT0=
EXTT1=
EXTT2=
EXTT3=
EXTT4=
EXTT5=
EXTT6=
PLAYORDER=
